<svg version="1.2" xmlns="http://www.w3.org/2000/svg" viewBox="0 0 1440 873" width="1440" height="873">
	<title>2-svg</title>
	<style>
		.s0 { fill: #F9F9F9 } 
		.s1 { opacity: .6;fill: #95013c } 
	</style>
	<path id="Layer copy 5" class="s0" d="m-654 902v-833.3c448.5-128.2 897-256.3 1313.9-247.3 416.9 9.1 802.1 155.4 1244.5 219.5 442.4 64.1 942 45.9 1441.7 27.8v833.3z"/>
	<g id="Dossier 1">
		<path id="Layer" class="s1" d="m0 873v-355.6c242 68.1 484 136.2 670.9 128 187-8.2 319-92.8 482.5-126.8 163.5-34.1 358.6-17.7 553.6-1.2v355.6z"/>
		<path id="Layer copy" class="s1" d="m1552 873v-355.6c-242 68.1-484 136.2-670.9 128-187-8.2-319-92.8-482.5-126.8-163.5-34.1-358.6-17.7-553.6-1.2v355.6z"/>
		<path id="Layer" class="s1" d="m-241 936.3v-350.2c188.5-53.9 377-107.7 552.2-103.9 175.1 3.8 337 65.3 522.9 92.2 186 26.9 395.9 19.3 605.9 11.7v350.2z"/>
		<path id="Layer copy 2" class="s1" d="m0 941.3v-350.2c188.5-53.9 377-107.7 552.2-103.9 175.1 3.8 337 65.3 522.9 92.2 186 26.9 395.9 19.3 605.9 11.7v350.2z"/>
		<path id="Layer copy 3" class="s1" d="m1681 917.3v-350.2c-188.5-53.9-377-107.7-552.2-103.9-175.1 3.8-337 65.3-522.9 92.2-186 26.9-395.9 19.3-605.9 11.7v350.2z"/>
		<path id="Layer copy 4" class="s1" d="m1681 917.3v-350.2c-188.5-53.9-377-107.7-552.2-103.9-175.1 3.8-337 65.3-522.9 92.2-186 26.9-395.9 19.3-605.9 11.7v350.2z"/>
	</g>
</svg>